<svg xmlns="http://www.w3.org/2000/svg" height="557" width="960.0" font-size="16" font-family="sans-serif" stroke-width="2">
<g transform="translate(10.0 0)">
<text fill="hsl(0, 100%, 40%)" y="22">Formatting.Formatting 1 strings.concat 1.01 μs</text>
<g>
<title>1.01 μs ±  76 ns</title>
<rect y="28" rx="5" height="22" width="0.07706488167513481" fill="hsl(0, 100%, 80%)" stroke="hsl(0, 100%, 55%)" />
<g stroke="hsl(0, 100%, 40%)"><line x1="0.07121874873459162" x2="0.082911014615678" y1="39" y2="39" />
<line x1="0.07121874873459162" x2="0.07121874873459162" y1="33" y2="45" />
<line x1="0.082911014615678" x2="0.082911014615678" y1="33" y2="45" />
</g>
</g>
<text fill="hsl(36, 100%, 40%)" y="77">Formatting.Formatting 1 strings.format 949  ns</text>
<g>
<title>949  ns ±  84 ns</title>
<rect y="83" rx="5" height="22" width="0.07265796527094834" fill="hsl(36, 100%, 80%)" stroke="hsl(36, 100%, 55%)" />
<g stroke="hsl(36, 100%, 40%)"><line x1="0.06625372346556976" x2="0.07906220707632691" y1="94" y2="94" />
<line x1="0.06625372346556976" x2="0.06625372346556976" y1="88" y2="100" />
<line x1="0.07906220707632691" x2="0.07906220707632691" y1="88" y2="100" />
</g>
</g>
<text fill="hsl(72, 100%, 40%)" y="132">Formatting.Formatting 10 strings.concat 10.5 μs</text>
<g>
<title>10.5 μs ± 1.0 μs</title>
<rect y="138" rx="5" height="22" width="0.8060573408296322" fill="hsl(72, 100%, 80%)" stroke="hsl(72, 100%, 55%)" />
<g stroke="hsl(72, 100%, 40%)"><line x1="0.7272278705090117" x2="0.8848868111502527" y1="149" y2="149" />
<line x1="0.7272278705090117" x2="0.7272278705090117" y1="143" y2="155" />
<line x1="0.8848868111502527" x2="0.8848868111502527" y1="143" y2="155" />
</g>
</g>
<text fill="hsl(108, 100%, 40%)" y="187">Formatting.Formatting 10 strings.format 9.86 μs</text>
<g>
<title>9.86 μs ± 391 ns</title>
<rect y="193" rx="5" height="22" width="0.754816898944421" fill="hsl(108, 100%, 80%)" stroke="hsl(108, 100%, 55%)" />
<g stroke="hsl(108, 100%, 40%)"><line x1="0.7248912394166056" x2="0.7847425584722365" y1="204" y2="204" />
<line x1="0.7248912394166056" x2="0.7248912394166056" y1="198" y2="210" />
<line x1="0.7847425584722365" x2="0.7847425584722365" y1="198" y2="210" />
</g>
</g>
<text fill="hsl(144, 100%, 40%)" y="242">Formatting.Formatting 100 strings.concat 102  μs</text>
<g>
<title>102  μs ± 5.8 μs</title>
<rect y="248" rx="5" height="22" width="7.824888475048651" fill="hsl(144, 100%, 80%)" stroke="hsl(144, 100%, 55%)" />
<g stroke="hsl(144, 100%, 40%)"><line x1="7.3833565324488735" x2="8.266420417648428" y1="259" y2="259" />
<line x1="7.3833565324488735" x2="7.3833565324488735" y1="253" y2="265" />
<line x1="8.266420417648428" x2="8.266420417648428" y1="253" y2="265" />
</g>
</g>
<text fill="hsl(180, 100%, 40%)" y="297">Formatting.Formatting 100 strings.format 99.4 μs</text>
<g>
<title>99.4 μs ± 5.7 μs</title>
<rect y="303" rx="5" height="22" width="7.61321324736154" fill="hsl(180, 100%, 80%)" stroke="hsl(180, 100%, 55%)" />
<g stroke="hsl(180, 100%, 40%)"><line x1="7.175234061960879" x2="8.051192432762202" y1="314" y2="314" />
<line x1="7.175234061960879" x2="7.175234061960879" y1="308" y2="320" />
<line x1="8.051192432762202" x2="8.051192432762202" y1="308" y2="320" />
</g>
</g>
<text fill="hsl(216, 100%, 40%)" y="352">Formatting.Formatting 1000 strings.concat 1.05 ms</text>
<g>
<title>1.05 ms ± 104 μs</title>
<rect y="358" rx="5" height="22" width="80.36092740005472" fill="hsl(216, 100%, 80%)" stroke="hsl(216, 100%, 55%)" />
<g stroke="hsl(216, 100%, 40%)"><line x1="72.38532909047625" x2="88.3365257096332" y1="369" y2="369" />
<line x1="72.38532909047625" x2="72.38532909047625" y1="363" y2="375" />
<line x1="88.3365257096332" x2="88.3365257096332" y1="363" y2="375" />
</g>
</g>
<text fill="hsl(252, 100%, 40%)" y="407">Formatting.Formatting 1000 strings.format 1.03 ms</text>
<g>
<title>1.03 ms ± 102 μs</title>
<rect y="413" rx="5" height="22" width="78.58766854483751" fill="hsl(252, 100%, 80%)" stroke="hsl(252, 100%, 55%)" />
<g stroke="hsl(252, 100%, 40%)"><line x1="70.76907215391427" x2="86.40626493576076" y1="424" y2="424" />
<line x1="70.76907215391427" x2="70.76907215391427" y1="418" y2="430" />
<line x1="86.40626493576076" x2="86.40626493576076" y1="418" y2="430" />
</g>
</g>
<g fill="hsl(288, 100%, 40%)">
<text y="462">Formatting.Formatting 10000 strings.concat</text>
<text y="462" x="881.795171304195" text-anchor="end">11.5 ms</text>
</g>
<g>
<title>11.5 ms ± 760 μs</title>
<rect y="468" rx="5" height="22" width="881.795171304195" fill="hsl(288, 100%, 80%)" stroke="hsl(288, 100%, 55%)" />
<g stroke="hsl(288, 100%, 40%)"><line x1="823.5903426083901" x2="940.0" y1="479" y2="479" />
<line x1="823.5903426083901" x2="823.5903426083901" y1="473" y2="485" />
<line x1="940.0" x2="940.0" y1="473" y2="485" />
</g>
</g>
<g fill="hsl(324, 100%, 40%)">
<text y="517">Formatting.Formatting 10000 strings.format</text>
<text y="517" x="862.8172803368927" text-anchor="end">11.3 ms</text>
</g>
<g>
<title>11.3 ms ± 708 μs</title>
<rect y="523" rx="5" height="22" width="862.8172803368927" fill="hsl(324, 100%, 80%)" stroke="hsl(324, 100%, 55%)" />
<g stroke="hsl(324, 100%, 40%)"><line x1="808.596692220259" x2="917.0378684535265" y1="534" y2="534" />
<line x1="808.596692220259" x2="808.596692220259" y1="528" y2="540" />
<line x1="917.0378684535265" x2="917.0378684535265" y1="528" y2="540" />
</g>
</g>
</g>
</svg>
