<svg xmlns="http://www.w3.org/2000/svg" height="557" width="960.0" font-size="16" font-family="sans-serif" stroke-width="2">
<g transform="translate(10.0 0)">
<text fill="hsl(0, 100%, 40%)" y="22">Formatting.Formatting 1 strings.concat 2.47 μs</text>
<g>
<title>2.47 μs ± 186 ns</title>
<rect y="28" rx="5" height="22" width="0.051657106091131305" fill="hsl(0, 100%, 80%)" stroke="hsl(0, 100%, 55%)" />
<g stroke="hsl(0, 100%, 40%)"><line x1="0.04777243395329414" x2="0.05554177822896847" y1="39" y2="39" />
<line x1="0.04777243395329414" x2="0.04777243395329414" y1="33" y2="45" />
<line x1="0.05554177822896847" x2="0.05554177822896847" y1="33" y2="45" />
</g>
</g>
<text fill="hsl(36, 100%, 40%)" y="77">Formatting.Formatting 1 strings.format 3.95 μs</text>
<g>
<title>3.95 μs ± 167 ns</title>
<rect y="83" rx="5" height="22" width="0.08274700507277528" fill="hsl(36, 100%, 80%)" stroke="hsl(36, 100%, 55%)" />
<g stroke="hsl(36, 100%, 40%)"><line x1="0.07925595547747881" x2="0.08623805466807176" y1="94" y2="94" />
<line x1="0.07925595547747881" x2="0.07925595547747881" y1="88" y2="100" />
<line x1="0.08623805466807176" x2="0.08623805466807176" y1="88" y2="100" />
</g>
</g>
<text fill="hsl(72, 100%, 40%)" y="132">Formatting.Formatting 10 strings.concat 26.4 μs</text>
<g>
<title>26.4 μs ± 1.7 μs</title>
<rect y="138" rx="5" height="22" width="0.5520263004776513" fill="hsl(72, 100%, 80%)" stroke="hsl(72, 100%, 55%)" />
<g stroke="hsl(72, 100%, 40%)"><line x1="0.5171916477446611" x2="0.5868609532106416" y1="149" y2="149" />
<line x1="0.5171916477446611" x2="0.5171916477446611" y1="143" y2="155" />
<line x1="0.5868609532106416" x2="0.5868609532106416" y1="143" y2="155" />
</g>
</g>
<text fill="hsl(108, 100%, 40%)" y="187">Formatting.Formatting 10 strings.format 39.9 μs</text>
<g>
<title>39.9 μs ± 3.1 μs</title>
<rect y="193" rx="5" height="22" width="0.8354046921813619" fill="hsl(108, 100%, 80%)" stroke="hsl(108, 100%, 55%)" />
<g stroke="hsl(108, 100%, 40%)"><line x1="0.7708534848690617" x2="0.8999558994936622" y1="204" y2="204" />
<line x1="0.7708534848690617" x2="0.7708534848690617" y1="198" y2="210" />
<line x1="0.8999558994936622" x2="0.8999558994936622" y1="198" y2="210" />
</g>
</g>
<text fill="hsl(144, 100%, 40%)" y="242">Formatting.Formatting 100 strings.concat 256  μs</text>
<g>
<title>256  μs ±  24 μs</title>
<rect y="248" rx="5" height="22" width="5.362617406824535" fill="hsl(144, 100%, 80%)" stroke="hsl(144, 100%, 55%)" />
<g stroke="hsl(144, 100%, 40%)"><line x1="4.86329366369248" x2="5.86194114995659" y1="259" y2="259" />
<line x1="4.86329366369248" x2="4.86329366369248" y1="253" y2="265" />
<line x1="5.86194114995659" x2="5.86194114995659" y1="253" y2="265" />
</g>
</g>
<text fill="hsl(180, 100%, 40%)" y="297">Formatting.Formatting 100 strings.format 398  μs</text>
<g>
<title>398  μs ±  21 μs</title>
<rect y="303" rx="5" height="22" width="8.341774600982822" fill="hsl(180, 100%, 80%)" stroke="hsl(180, 100%, 55%)" />
<g stroke="hsl(180, 100%, 40%)"><line x1="7.895218055731995" x2="8.788331146233649" y1="314" y2="314" />
<line x1="7.895218055731995" x2="7.895218055731995" y1="308" y2="320" />
<line x1="8.788331146233649" x2="8.788331146233649" y1="308" y2="320" />
</g>
</g>
<text fill="hsl(216, 100%, 40%)" y="352">Formatting.Formatting 1000 strings.concat 2.71 ms</text>
<g>
<title>2.71 ms ± 244 μs</title>
<rect y="358" rx="5" height="22" width="56.66346243118535" fill="hsl(216, 100%, 80%)" stroke="hsl(216, 100%, 55%)" />
<g stroke="hsl(216, 100%, 40%)"><line x1="51.551406314432526" x2="61.77551854793818" y1="369" y2="369" />
<line x1="51.551406314432526" x2="51.551406314432526" y1="363" y2="375" />
<line x1="61.77551854793818" x2="61.77551854793818" y1="363" y2="375" />
</g>
</g>
<text fill="hsl(252, 100%, 40%)" y="407">Formatting.Formatting 1000 strings.format 4.13 ms</text>
<g>
<title>4.13 ms ± 231 μs</title>
<rect y="413" rx="5" height="22" width="86.54870929279238" fill="hsl(252, 100%, 80%)" stroke="hsl(252, 100%, 55%)" />
<g stroke="hsl(252, 100%, 40%)"><line x1="81.71048438887192" x2="91.38693419671284" y1="424" y2="424" />
<line x1="81.71048438887192" x2="81.71048438887192" y1="418" y2="430" />
<line x1="91.38693419671284" x2="91.38693419671284" y1="418" y2="430" />
</g>
</g>
<g fill="hsl(288, 100%, 40%)">
<text y="462">Formatting.Formatting 10000 strings.concat</text>
<text y="462" x="570.2240707481545" text-anchor="end">27.2 ms</text>
</g>
<g>
<title>27.2 ms ± 1.8 ms</title>
<rect y="468" rx="5" height="22" width="570.2240707481545" fill="hsl(288, 100%, 80%)" stroke="hsl(288, 100%, 55%)" />
<g stroke="hsl(288, 100%, 40%)"><line x1="531.7940645604568" x2="608.6540769358522" y1="479" y2="479" />
<line x1="531.7940645604568" x2="531.7940645604568" y1="473" y2="485" />
<line x1="608.6540769358522" x2="608.6540769358522" y1="473" y2="485" />
</g>
</g>
<g fill="hsl(324, 100%, 40%)">
<text y="517">Formatting.Formatting 10000 strings.format</text>
<text y="517" x="866.452950680609" text-anchor="end">41.4 ms</text>
</g>
<g>
<title>41.4 ms ± 3.5 ms</title>
<rect y="523" rx="5" height="22" width="866.452950680609" fill="hsl(324, 100%, 80%)" stroke="hsl(324, 100%, 55%)" />
<g stroke="hsl(324, 100%, 40%)"><line x1="792.905901361218" x2="940.0" y1="534" y2="534" />
<line x1="792.905901361218" x2="792.905901361218" y1="528" y2="540" />
<line x1="940.0" x2="940.0" y1="528" y2="540" />
</g>
</g>
</g>
</svg>
