<svg xmlns="http://www.w3.org/2000/svg" height="557" width="960.0" font-size="16" font-family="sans-serif" stroke-width="2">
<g transform="translate(10.0 0)">
<text fill="hsl(0, 100%, 40%)" y="22">Formatting.Formatting 1 strings.concat 993  ns</text>
<g>
<title>993  ns ±  90 ns</title>
<rect y="28" rx="5" height="22" width="0.07506899412276899" fill="hsl(0, 100%, 80%)" stroke="hsl(0, 100%, 55%)" />
<g stroke="hsl(0, 100%, 40%)"><line x1="0.0682795227258875" x2="0.08185846551965048" y1="39" y2="39" />
<line x1="0.0682795227258875" x2="0.0682795227258875" y1="33" y2="45" />
<line x1="0.08185846551965048" x2="0.08185846551965048" y1="33" y2="45" />
</g>
</g>
<text fill="hsl(36, 100%, 40%)" y="77">Formatting.Formatting 1 strings.format 1.02 μs</text>
<g>
<title>1.02 μs ±  54 ns</title>
<rect y="83" rx="5" height="22" width="0.07675030308336447" fill="hsl(36, 100%, 80%)" stroke="hsl(36, 100%, 55%)" />
<g stroke="hsl(36, 100%, 40%)"><line x1="0.0726372627431375" x2="0.08086334342359144" y1="94" y2="94" />
<line x1="0.0726372627431375" x2="0.0726372627431375" y1="88" y2="100" />
<line x1="0.08086334342359144" x2="0.08086334342359144" y1="88" y2="100" />
</g>
</g>
<text fill="hsl(72, 100%, 40%)" y="132">Formatting.Formatting 10 strings.concat 10.3 μs</text>
<g>
<title>10.3 μs ± 750 ns</title>
<rect y="138" rx="5" height="22" width="0.7811748506820899" fill="hsl(72, 100%, 80%)" stroke="hsl(72, 100%, 55%)" />
<g stroke="hsl(72, 100%, 40%)"><line x1="0.7244675520273992" x2="0.8378821493367806" y1="149" y2="149" />
<line x1="0.7244675520273992" x2="0.7244675520273992" y1="143" y2="155" />
<line x1="0.8378821493367806" x2="0.8378821493367806" y1="143" y2="155" />
</g>
</g>
<text fill="hsl(108, 100%, 40%)" y="187">Formatting.Formatting 10 strings.format 10.4 μs</text>
<g>
<title>10.4 μs ± 1.0 μs</title>
<rect y="193" rx="5" height="22" width="0.7868698238015396" fill="hsl(108, 100%, 80%)" stroke="hsl(108, 100%, 55%)" />
<g stroke="hsl(108, 100%, 40%)"><line x1="0.7110126216394408" x2="0.8627270259636384" y1="204" y2="204" />
<line x1="0.7110126216394408" x2="0.7110126216394408" y1="198" y2="210" />
<line x1="0.8627270259636384" x2="0.8627270259636384" y1="198" y2="210" />
</g>
</g>
<text fill="hsl(144, 100%, 40%)" y="242">Formatting.Formatting 100 strings.concat 103  μs</text>
<g>
<title>103  μs ± 5.9 μs</title>
<rect y="248" rx="5" height="22" width="7.758970761534289" fill="hsl(144, 100%, 80%)" stroke="hsl(144, 100%, 55%)" />
<g stroke="hsl(144, 100%, 40%)"><line x1="7.31504201837995" x2="8.202899504688627" y1="259" y2="259" />
<line x1="7.31504201837995" x2="7.31504201837995" y1="253" y2="265" />
<line x1="8.202899504688627" x2="8.202899504688627" y1="253" y2="265" />
</g>
</g>
<text fill="hsl(180, 100%, 40%)" y="297">Formatting.Formatting 100 strings.format 104  μs</text>
<g>
<title>104  μs ± 6.7 μs</title>
<rect y="303" rx="5" height="22" width="7.83067872473192" fill="hsl(180, 100%, 80%)" stroke="hsl(180, 100%, 55%)" />
<g stroke="hsl(180, 100%, 40%)"><line x1="7.327195914289951" x2="8.334161535173887" y1="314" y2="314" />
<line x1="7.327195914289951" x2="7.327195914289951" y1="308" y2="320" />
<line x1="8.334161535173887" x2="8.334161535173887" y1="308" y2="320" />
</g>
</g>
<text fill="hsl(216, 100%, 40%)" y="352">Formatting.Formatting 1000 strings.concat 1.04 ms</text>
<g>
<title>1.04 ms ±  89 μs</title>
<rect y="358" rx="5" height="22" width="78.85406230697065" fill="hsl(216, 100%, 80%)" stroke="hsl(216, 100%, 55%)" />
<g stroke="hsl(216, 100%, 40%)"><line x1="72.10524204068362" x2="85.60288257325767" y1="369" y2="369" />
<line x1="72.10524204068362" x2="72.10524204068362" y1="363" y2="375" />
<line x1="85.60288257325767" x2="85.60288257325767" y1="363" y2="375" />
</g>
</g>
<text fill="hsl(252, 100%, 40%)" y="407">Formatting.Formatting 1000 strings.format 1.05 ms</text>
<g>
<title>1.05 ms ±  93 μs</title>
<rect y="413" rx="5" height="22" width="79.04292995144746" fill="hsl(252, 100%, 80%)" stroke="hsl(252, 100%, 55%)" />
<g stroke="hsl(252, 100%, 40%)"><line x1="72.00402811788217" x2="86.08183178501275" y1="424" y2="424" />
<line x1="72.00402811788217" x2="72.00402811788217" y1="418" y2="430" />
<line x1="86.08183178501275" x2="86.08183178501275" y1="418" y2="430" />
</g>
</g>
<g fill="hsl(288, 100%, 40%)">
<text y="462">Formatting.Formatting 10000 strings.concat</text>
<text y="462" x="864.6832668760541" text-anchor="end">11.4 ms</text>
</g>
<g>
<title>11.4 ms ± 773 μs</title>
<rect y="468" rx="5" height="22" width="864.6832668760541" fill="hsl(288, 100%, 80%)" stroke="hsl(288, 100%, 55%)" />
<g stroke="hsl(288, 100%, 40%)"><line x1="806.2366713318702" x2="923.1298624202379" y1="479" y2="479" />
<line x1="806.2366713318702" x2="806.2366713318702" y1="473" y2="485" />
<line x1="923.1298624202379" x2="923.1298624202379" y1="473" y2="485" />
</g>
</g>
<g fill="hsl(324, 100%, 40%)">
<text y="517">Formatting.Formatting 10000 strings.format</text>
<text y="517" x="881.326782175254" text-anchor="end">11.7 ms</text>
</g>
<g>
<title>11.7 ms ± 776 μs</title>
<rect y="523" rx="5" height="22" width="881.326782175254" fill="hsl(324, 100%, 80%)" stroke="hsl(324, 100%, 55%)" />
<g stroke="hsl(324, 100%, 40%)"><line x1="822.6535643505081" x2="940.0" y1="534" y2="534" />
<line x1="822.6535643505081" x2="822.6535643505081" y1="528" y2="540" />
<line x1="940.0" x2="940.0" y1="528" y2="540" />
</g>
</g>
</g>
</svg>
