<svg xmlns="http://www.w3.org/2000/svg" height="557" width="960.0" font-size="16" font-family="sans-serif" stroke-width="2">
<g transform="translate(10.0 0)">
<text fill="hsl(0, 100%, 40%)" y="22">Formatting.Formatting 1 strings.concat 861  ns</text>
<g>
<title>861  ns ±  42 ns</title>
<rect y="28" rx="5" height="22" width="0.07605771223055076" fill="hsl(0, 100%, 80%)" stroke="hsl(0, 100%, 55%)" />
<g stroke="hsl(0, 100%, 40%)"><line x1="0.07239199090254896" x2="0.07972343355855256" y1="39" y2="39" />
<line x1="0.07239199090254896" x2="0.07239199090254896" y1="33" y2="45" />
<line x1="0.07972343355855256" x2="0.07972343355855256" y1="33" y2="45" />
</g>
</g>
<text fill="hsl(36, 100%, 40%)" y="77">Formatting.Formatting 1 strings.format 888  ns</text>
<g>
<title>888  ns ±  79 ns</title>
<rect y="83" rx="5" height="22" width="0.07843749908189664" fill="hsl(36, 100%, 80%)" stroke="hsl(36, 100%, 55%)" />
<g stroke="hsl(36, 100%, 40%)"><line x1="0.07142751796665447" x2="0.0854474801971388" y1="94" y2="94" />
<line x1="0.07142751796665447" x2="0.07142751796665447" y1="88" y2="100" />
<line x1="0.0854474801971388" x2="0.0854474801971388" y1="88" y2="100" />
</g>
</g>
<text fill="hsl(72, 100%, 40%)" y="132">Formatting.Formatting 10 strings.concat 9.13 μs</text>
<g>
<title>9.13 μs ± 689 ns</title>
<rect y="138" rx="5" height="22" width="0.806363666715931" fill="hsl(72, 100%, 80%)" stroke="hsl(72, 100%, 55%)" />
<g stroke="hsl(72, 100%, 40%)"><line x1="0.7455221245646595" x2="0.8672052088672024" y1="149" y2="149" />
<line x1="0.7455221245646595" x2="0.7455221245646595" y1="143" y2="155" />
<line x1="0.8672052088672024" x2="0.8672052088672024" y1="143" y2="155" />
</g>
</g>
<text fill="hsl(108, 100%, 40%)" y="187">Formatting.Formatting 10 strings.format 9.22 μs</text>
<g>
<title>9.22 μs ± 732 ns</title>
<rect y="193" rx="5" height="22" width="0.8138945215035388" fill="hsl(108, 100%, 80%)" stroke="hsl(108, 100%, 55%)" />
<g stroke="hsl(108, 100%, 40%)"><line x1="0.7492560239996581" x2="0.8785330190074195" y1="204" y2="204" />
<line x1="0.7492560239996581" x2="0.7492560239996581" y1="198" y2="210" />
<line x1="0.8785330190074195" x2="0.8785330190074195" y1="198" y2="210" />
</g>
</g>
<text fill="hsl(144, 100%, 40%)" y="242">Formatting.Formatting 100 strings.concat 91.1 μs</text>
<g>
<title>91.1 μs ± 7.9 μs</title>
<rect y="248" rx="5" height="22" width="8.046399616740127" fill="hsl(144, 100%, 80%)" stroke="hsl(144, 100%, 55%)" />
<g stroke="hsl(144, 100%, 40%)"><line x1="7.344387488344751" x2="8.748411745135503" y1="259" y2="259" />
<line x1="7.344387488344751" x2="7.344387488344751" y1="253" y2="265" />
<line x1="8.748411745135503" x2="8.748411745135503" y1="253" y2="265" />
</g>
</g>
<text fill="hsl(180, 100%, 40%)" y="297">Formatting.Formatting 100 strings.format 90.0 μs</text>
<g>
<title>90.0 μs ± 6.4 μs</title>
<rect y="303" rx="5" height="22" width="7.949166420334406" fill="hsl(180, 100%, 80%)" stroke="hsl(180, 100%, 55%)" />
<g stroke="hsl(180, 100%, 40%)"><line x1="7.3879606287452555" x2="8.510372211923556" y1="314" y2="314" />
<line x1="7.3879606287452555" x2="7.3879606287452555" y1="308" y2="320" />
<line x1="8.510372211923556" x2="8.510372211923556" y1="308" y2="320" />
</g>
</g>
<text fill="hsl(216, 100%, 40%)" y="352">Formatting.Formatting 1000 strings.concat 900  μs</text>
<g>
<title>900  μs ±  42 μs</title>
<rect y="358" rx="5" height="22" width="79.4790968233725" fill="hsl(216, 100%, 80%)" stroke="hsl(216, 100%, 55%)" />
<g stroke="hsl(216, 100%, 40%)"><line x1="75.75378959612782" x2="83.20440405061719" y1="369" y2="369" />
<line x1="75.75378959612782" x2="75.75378959612782" y1="363" y2="375" />
<line x1="83.20440405061719" x2="83.20440405061719" y1="363" y2="375" />
</g>
</g>
<text fill="hsl(252, 100%, 40%)" y="407">Formatting.Formatting 1000 strings.format 902  μs</text>
<g>
<title>902  μs ±  90 μs</title>
<rect y="413" rx="5" height="22" width="79.66369487676423" fill="hsl(252, 100%, 80%)" stroke="hsl(252, 100%, 55%)" />
<g stroke="hsl(252, 100%, 40%)"><line x1="71.72600507500306" x2="87.60138467852539" y1="424" y2="424" />
<line x1="71.72600507500306" x2="71.72600507500306" y1="418" y2="430" />
<line x1="87.60138467852539" x2="87.60138467852539" y1="418" y2="430" />
</g>
</g>
<g fill="hsl(288, 100%, 40%)">
<text y="462">Formatting.Formatting 10000 strings.concat</text>
<text y="462" x="873.3919879129453" text-anchor="end">9.89 ms</text>
</g>
<g>
<title>9.89 ms ± 723 μs</title>
<rect y="468" rx="5" height="22" width="873.3919879129453" fill="hsl(288, 100%, 80%)" stroke="hsl(288, 100%, 55%)" />
<g stroke="hsl(288, 100%, 40%)"><line x1="809.5071497496638" x2="937.2768260762268" y1="479" y2="479" />
<line x1="809.5071497496638" x2="809.5071497496638" y1="473" y2="485" />
<line x1="937.2768260762268" x2="937.2768260762268" y1="473" y2="485" />
</g>
</g>
<g fill="hsl(324, 100%, 40%)">
<text y="517">Formatting.Formatting 10000 strings.format</text>
<text y="517" x="908.7738533103181" text-anchor="end">10.3 ms</text>
</g>
<g>
<title>10.3 ms ± 354 μs</title>
<rect y="523" rx="5" height="22" width="908.7738533103181" fill="hsl(324, 100%, 80%)" stroke="hsl(324, 100%, 55%)" />
<g stroke="hsl(324, 100%, 40%)"><line x1="877.5477066206363" x2="940.0" y1="534" y2="534" />
<line x1="877.5477066206363" x2="877.5477066206363" y1="528" y2="540" />
<line x1="940.0" x2="940.0" y1="528" y2="540" />
</g>
</g>
</g>
</svg>
